<svg width="888" height="365" viewBox="0 0 888 365" fill="none" xmlns="http://www.w3.org/2000/svg">
    <path d="M10.68 15.984L10.752 10.944H10.56L7.2 19.56L3.84 10.944H3.648L3.72 15.984V24H1.344V7.248H4.632L7.2 13.896H7.368L9.96 7.248H13.056V24H10.68V15.984ZM25.4786 24L24.2066 19.536H18.8786L17.6066 24H14.8706L19.7666 7.248H23.4386L28.3346 24H25.4786ZM21.6386 9.96H21.4466L19.3826 17.304H23.7026L21.6386 9.96ZM30.7013 24V21.96H34.6373V9.288H30.7013V7.248H41.2613V9.288H37.3253V21.96H41.2613V24H30.7013ZM47.4679 11.112H47.2519V24H44.8999V7.248H48.3559L53.2759 20.136H53.4919V7.248H55.8439V24H52.3879L47.4679 11.112ZM61.8585 11.112H61.6425V24H59.2905V7.248H62.7465L67.6665 20.136H67.8825V7.248H70.2345V24H66.7785L61.8585 11.112ZM74.0171 24V7.248H84.5051V9.504H76.7051V14.376H84.2171V16.632H76.7051V21.744H84.5051V24H74.0171ZM94.8878 9.504V24H92.1998V9.504H86.9438V7.248H100.144V9.504H94.8878Z" fill="#1A202C"/>
    <rect x="0.5" y="45.5" width="431" height="319" stroke="#1A202C" stroke-dasharray="1 5"/>
    <rect x="456.5" y="45.5" width="431" height="319" stroke="#1A202C" stroke-dasharray="1 5"/>
    <path d="M464.544 9.504V24H461.856V9.504H456.6V7.248H469.8V9.504H464.544ZM472.455 24V7.248H482.943V9.504H475.143V14.376H482.655V16.632H475.143V21.744H482.943V24H472.455ZM491.837 24.288C490.381 24.288 489.157 24.032 488.165 23.52C487.173 23.008 486.357 22.328 485.717 21.48L487.445 19.824C488.085 20.592 488.765 21.16 489.485 21.528C490.205 21.88 491.021 22.056 491.933 22.056C492.989 22.056 493.797 21.816 494.357 21.336C494.933 20.856 495.221 20.168 495.221 19.272C495.221 18.552 495.013 18 494.597 17.616C494.181 17.216 493.469 16.928 492.461 16.752L490.637 16.464C489.837 16.336 489.165 16.128 488.621 15.84C488.077 15.536 487.637 15.184 487.301 14.784C486.965 14.368 486.717 13.912 486.557 13.416C486.413 12.904 486.341 12.368 486.341 11.808C486.341 10.224 486.853 9.024 487.877 8.208C488.901 7.376 490.309 6.96 492.101 6.96C493.429 6.96 494.557 7.176 495.485 7.608C496.429 8.024 497.189 8.616 497.765 9.384L496.085 11.064C495.621 10.504 495.069 10.056 494.429 9.72C493.805 9.368 493.029 9.192 492.101 9.192C491.109 9.192 490.349 9.408 489.821 9.84C489.309 10.256 489.053 10.872 489.053 11.688C489.053 12.376 489.253 12.92 489.653 13.32C490.069 13.704 490.797 13.984 491.837 14.16L493.613 14.472C495.117 14.744 496.213 15.296 496.901 16.128C497.589 16.944 497.933 17.944 497.933 19.128C497.933 19.896 497.797 20.6 497.525 21.24C497.269 21.88 496.877 22.424 496.349 22.872C495.837 23.32 495.197 23.672 494.429 23.928C493.677 24.168 492.813 24.288 491.837 24.288ZM507.716 9.504V24H505.028V9.504H499.772V7.248H512.972V9.504H507.716ZM517.859 11.112H517.643V24H515.291V7.248H518.747L523.667 20.136H523.883V7.248H526.234V24H522.779L517.859 11.112ZM530.017 24V7.248H540.505V9.504H532.705V14.376H540.217V16.632H532.705V21.744H540.505V24H530.017ZM550.888 9.504V24H548.2V9.504H542.944V7.248H556.144V9.504H550.888Z" fill="#1A202C"/>
    <g filter="url(#filter0_d_4513_7103)">
    <rect x="21" y="137" width="196" height="136" fill="#E8E8FE"/>
    <rect x="21.5" y="137.5" width="195" height="135" stroke="#1A202C"/>
    </g>
    <path d="M38.376 255V243.832H45.368V245.336H40.168V248.584H45.176V250.088H40.168V253.496H45.368V255H38.376ZM52.2898 245.336V255H50.4978V245.336H46.9938V243.832H55.7938V245.336H52.2898ZM62.8435 250.088H59.1315V255H57.3395V243.832H59.1315V248.584H62.8435V243.832H64.6355V255H62.8435V250.088Z" fill="#1A202C"/>
    <rect width="40" height="40" transform="translate(37 153)" fill="#627EEA"/>
    <path d="M56.9844 160V169.445L64.9674 173.013L56.9844 160Z" fill="white" fill-opacity="0.602"/>
    <path d="M56.983 160L49 173.013L56.983 169.445V160Z" fill="white"/>
    <path d="M56.9844 179.133V185.551L64.972 174.499L56.9844 179.133Z" fill="white" fill-opacity="0.602"/>
    <path d="M56.983 185.551V179.133L49 174.499L56.983 185.551Z" fill="white"/>
    <path d="M56.9844 177.647L64.9674 173.013L56.9844 169.445V177.647Z" fill="white" fill-opacity="0.2"/>
    <path d="M49 173.013L56.983 177.647V169.445L49 173.013Z" fill="white" fill-opacity="0.602"/>
    <g filter="url(#filter1_d_4513_7103)">
    <rect x="477" y="137" width="196" height="136" fill="#E8E8FE"/>
    <rect x="477.5" y="137.5" width="195" height="135" stroke="#1A202C"/>
    </g>
    <path d="M500.12 249.656L500.168 246.296H500.04L497.8 252.04L495.56 246.296H495.432L495.48 249.656V255H493.896V243.832H496.088L497.8 248.264H497.912L499.64 243.832H501.704V255H500.12V249.656ZM503.97 255V243.832H510.962V245.336H505.762V248.584H510.77V250.088H505.762V253.496H510.962V255H503.97ZM517.884 245.336V255H516.092V245.336H512.588V243.832H521.388V245.336H517.884ZM528.437 250.088H524.725V255H522.933V243.832H524.725V248.584H528.437V243.832H530.229V255H528.437V250.088Z" fill="#1A202C"/>
    <rect width="40" height="40" transform="translate(493 153)" fill="#627EEA"/>
    <path d="M512.984 160V169.445L520.967 173.013L512.984 160Z" fill="white" fill-opacity="0.602"/>
    <path d="M512.983 160L505 173.013L512.983 169.445V160Z" fill="white"/>
    <path d="M512.984 179.133V185.551L520.972 174.499L512.984 179.133Z" fill="white" fill-opacity="0.602"/>
    <path d="M512.983 185.551V179.133L505 174.499L512.983 185.551Z" fill="white"/>
    <path d="M512.984 177.647L520.967 173.013L512.984 169.445V177.647Z" fill="white" fill-opacity="0.2"/>
    <path d="M505 173.013L512.983 177.647V169.445L505 173.013Z" fill="white" fill-opacity="0.602"/>
    <g filter="url(#filter2_d_4513_7103)">
    <rect x="216" y="137" width="196" height="136" fill="#F7F7F7"/>
    <rect x="216.5" y="137.5" width="195" height="135" stroke="#1A202C"/>
    </g>
    <g clip-path="url(#clip0_4513_7103)">
    <path d="M272 153H232V193H272V153Z" fill="#1E1E1E"/>
    <path d="M272 153H232V193H272V153Z" fill="url(#paint0_linear_4513_7103)"/>
    <path d="M249.2 169.665C249.2 169.175 249.099 168.743 248.898 168.369C248.71 167.995 248.451 167.685 248.12 167.44C247.789 167.196 247.408 167.008 246.976 166.879C246.544 166.749 246.09 166.684 245.615 166.684C245.197 166.684 244.802 166.742 244.427 166.857C244.053 166.958 243.715 167.109 243.412 167.311C243.124 167.512 242.894 167.764 242.721 168.067C242.548 168.355 242.462 168.693 242.462 169.082V169.211C242.462 169.629 242.548 169.989 242.721 170.291C242.894 170.579 243.146 170.831 243.477 171.047C243.823 171.248 244.247 171.421 244.751 171.565C245.255 171.695 245.845 171.81 246.522 171.911C248.106 172.156 249.272 172.623 250.021 173.315C250.769 173.991 251.144 174.906 251.144 176.057V176.316C251.144 176.964 251.028 177.562 250.798 178.109C250.582 178.642 250.251 179.102 249.805 179.491C249.373 179.88 248.833 180.182 248.185 180.398C247.537 180.614 246.788 180.722 245.939 180.722C244.974 180.722 244.118 180.585 243.369 180.312C242.635 180.024 242.016 179.635 241.512 179.146C241.022 178.642 240.648 178.059 240.389 177.396C240.13 176.72 240 175.985 240 175.193V174.545H241.814V175.064C241.814 176.388 242.174 177.382 242.894 178.044C243.628 178.706 244.643 179.038 245.939 179.038C247.062 179.038 247.904 178.793 248.466 178.303C249.042 177.799 249.33 177.137 249.33 176.316V176.187C249.33 175.395 249.034 174.79 248.444 174.373C247.868 173.955 246.925 173.653 245.615 173.466C244.852 173.365 244.161 173.214 243.542 173.012C242.937 172.796 242.419 172.523 241.987 172.191C241.555 171.846 241.224 171.436 240.993 170.961C240.763 170.485 240.648 169.924 240.648 169.276V169.017C240.648 168.427 240.77 167.887 241.015 167.397C241.26 166.908 241.598 166.483 242.03 166.123C242.476 165.763 243.002 165.49 243.607 165.302C244.226 165.101 244.902 165 245.637 165C246.486 165 247.242 165.122 247.904 165.367C248.581 165.612 249.15 165.943 249.61 166.361C250.071 166.764 250.417 167.246 250.647 167.807C250.892 168.355 251.014 168.931 251.014 169.535V170.442H249.2V169.665Z" fill="white"/>
    <path d="M255.362 175.582C255.405 176.648 255.736 177.504 256.355 178.152C256.974 178.8 257.838 179.124 258.947 179.124C259.45 179.124 259.89 179.066 260.264 178.951C260.638 178.836 260.955 178.678 261.214 178.476C261.488 178.275 261.704 178.044 261.862 177.785C262.035 177.511 262.172 177.224 262.272 176.921L263.87 177.353C263.568 178.347 263.007 179.16 262.186 179.793C261.38 180.413 260.285 180.722 258.903 180.722C258.14 180.722 257.435 180.593 256.787 180.333C256.153 180.06 255.606 179.678 255.146 179.189C254.685 178.699 254.325 178.116 254.066 177.439C253.807 176.763 253.677 176.014 253.677 175.193V174.675C253.677 173.926 253.807 173.228 254.066 172.58C254.339 171.932 254.714 171.378 255.189 170.917C255.664 170.442 256.218 170.075 256.852 169.816C257.5 169.542 258.198 169.406 258.947 169.406C259.825 169.406 260.581 169.571 261.214 169.902C261.862 170.219 262.388 170.615 262.791 171.09C263.208 171.565 263.511 172.084 263.698 172.645C263.899 173.207 264 173.725 264 174.2V175.582H255.362ZM258.947 171.004C258.471 171.004 258.025 171.083 257.608 171.241C257.204 171.385 256.844 171.594 256.528 171.868C256.225 172.141 255.973 172.465 255.772 172.839C255.585 173.199 255.462 173.595 255.405 174.027H262.316C262.287 173.567 262.172 173.149 261.97 172.775C261.783 172.4 261.531 172.084 261.214 171.824C260.912 171.565 260.559 171.364 260.156 171.22C259.767 171.076 259.364 171.004 258.947 171.004Z" fill="white"/>
    </g>
    <path d="M236.704 255.192C235.733 255.192 234.917 255.021 234.256 254.68C233.595 254.339 233.051 253.885 232.624 253.32L233.776 252.216C234.203 252.728 234.656 253.107 235.136 253.352C235.616 253.587 236.16 253.704 236.768 253.704C237.472 253.704 238.011 253.544 238.384 253.224C238.768 252.904 238.96 252.445 238.96 251.848C238.96 251.368 238.821 251 238.544 250.744C238.267 250.477 237.792 250.285 237.12 250.168L235.904 249.976C235.371 249.891 234.923 249.752 234.56 249.56C234.197 249.357 233.904 249.123 233.68 248.856C233.456 248.579 233.291 248.275 233.184 247.944C233.088 247.603 233.04 247.245 233.04 246.872C233.04 245.816 233.381 245.016 234.064 244.472C234.747 243.917 235.685 243.64 236.88 243.64C237.765 243.64 238.517 243.784 239.136 244.072C239.765 244.349 240.272 244.744 240.656 245.256L239.536 246.376C239.227 246.003 238.859 245.704 238.432 245.48C238.016 245.245 237.499 245.128 236.88 245.128C236.219 245.128 235.712 245.272 235.36 245.56C235.019 245.837 234.848 246.248 234.848 246.792C234.848 247.251 234.981 247.613 235.248 247.88C235.525 248.136 236.011 248.323 236.704 248.44L237.888 248.648C238.891 248.829 239.621 249.197 240.08 249.752C240.539 250.296 240.768 250.963 240.768 251.752C240.768 252.264 240.677 252.733 240.496 253.16C240.325 253.587 240.064 253.949 239.712 254.248C239.371 254.547 238.944 254.781 238.432 254.952C237.931 255.112 237.355 255.192 236.704 255.192ZM242.97 255V243.832H249.962V245.336H244.762V248.584H249.77V250.088H244.762V253.496H249.962V255H242.97ZM256.884 245.336V255H255.092V245.336H251.588V243.832H260.388V245.336H256.884ZM267.437 250.088H263.725V255H261.933V243.832H263.725V248.584H267.437V243.832H269.229V255H267.437V250.088Z" fill="#1A202C"/>
    <g filter="url(#filter3_d_4513_7103)">
    <rect x="672" y="137" width="196" height="136" fill="#F7F7F7"/>
    <rect x="672.5" y="137.5" width="195" height="135" stroke="#1A202C"/>
    </g>
    <g clip-path="url(#clip1_4513_7103)">
    <path d="M728 153H688V193H728V153Z" fill="#1E1E1E"/>
    <path d="M728 153H688V193H728V153Z" fill="url(#paint1_linear_4513_7103)"/>
    <path d="M705.2 169.665C705.2 169.175 705.099 168.743 704.898 168.369C704.71 167.995 704.451 167.685 704.12 167.44C703.789 167.196 703.408 167.008 702.976 166.879C702.544 166.749 702.09 166.684 701.615 166.684C701.197 166.684 700.802 166.742 700.427 166.857C700.053 166.958 699.715 167.109 699.412 167.311C699.124 167.512 698.894 167.764 698.721 168.067C698.548 168.355 698.462 168.693 698.462 169.082V169.211C698.462 169.629 698.548 169.989 698.721 170.291C698.894 170.579 699.146 170.831 699.477 171.047C699.823 171.248 700.247 171.421 700.751 171.565C701.255 171.695 701.845 171.81 702.522 171.911C704.106 172.156 705.272 172.623 706.021 173.315C706.769 173.991 707.144 174.906 707.144 176.057V176.316C707.144 176.964 707.028 177.562 706.798 178.109C706.582 178.642 706.251 179.102 705.805 179.491C705.373 179.88 704.833 180.182 704.185 180.398C703.537 180.614 702.788 180.722 701.939 180.722C700.974 180.722 700.118 180.585 699.369 180.312C698.635 180.024 698.016 179.635 697.512 179.146C697.022 178.642 696.648 178.059 696.389 177.396C696.13 176.72 696 175.985 696 175.193V174.545H697.814V175.064C697.814 176.388 698.174 177.382 698.894 178.044C699.628 178.706 700.643 179.038 701.939 179.038C703.062 179.038 703.904 178.793 704.466 178.303C705.042 177.799 705.33 177.137 705.33 176.316V176.187C705.33 175.395 705.034 174.79 704.444 174.373C703.868 173.955 702.925 173.653 701.615 173.466C700.852 173.365 700.161 173.214 699.542 173.012C698.937 172.796 698.419 172.523 697.987 172.191C697.555 171.846 697.224 171.436 696.993 170.961C696.763 170.485 696.648 169.924 696.648 169.276V169.017C696.648 168.427 696.77 167.887 697.015 167.397C697.26 166.908 697.598 166.483 698.03 166.123C698.476 165.763 699.002 165.49 699.607 165.302C700.226 165.101 700.902 165 701.637 165C702.486 165 703.242 165.122 703.904 165.367C704.581 165.612 705.15 165.943 705.61 166.361C706.071 166.764 706.417 167.246 706.647 167.807C706.892 168.355 707.014 168.931 707.014 169.535V170.442H705.2V169.665Z" fill="white"/>
    <path d="M711.362 175.582C711.405 176.648 711.736 177.504 712.355 178.152C712.974 178.8 713.838 179.124 714.947 179.124C715.45 179.124 715.89 179.066 716.264 178.951C716.638 178.836 716.955 178.678 717.214 178.476C717.488 178.275 717.704 178.044 717.862 177.785C718.035 177.511 718.172 177.224 718.272 176.921L719.87 177.353C719.568 178.347 719.007 179.16 718.186 179.793C717.38 180.413 716.285 180.722 714.903 180.722C714.14 180.722 713.435 180.593 712.787 180.333C712.153 180.06 711.606 179.678 711.146 179.189C710.685 178.699 710.325 178.116 710.066 177.439C709.807 176.763 709.677 176.014 709.677 175.193V174.675C709.677 173.926 709.807 173.228 710.066 172.58C710.339 171.932 710.714 171.378 711.189 170.917C711.664 170.442 712.218 170.075 712.852 169.816C713.5 169.542 714.198 169.406 714.947 169.406C715.825 169.406 716.581 169.571 717.214 169.902C717.862 170.219 718.388 170.615 718.791 171.09C719.208 171.565 719.511 172.084 719.698 172.645C719.899 173.207 720 173.725 720 174.2V175.582H711.362ZM714.947 171.004C714.471 171.004 714.025 171.083 713.608 171.241C713.204 171.385 712.844 171.594 712.528 171.868C712.225 172.141 711.973 172.465 711.772 172.839C711.585 173.199 711.462 173.595 711.405 174.027H718.316C718.287 173.567 718.172 173.149 717.97 172.775C717.783 172.4 717.531 172.084 717.214 171.824C716.912 171.565 716.559 171.364 716.156 171.22C715.767 171.076 715.364 171.004 714.947 171.004Z" fill="white"/>
    </g>
    <path d="M692.704 255.192C691.733 255.192 690.917 255.021 690.256 254.68C689.595 254.339 689.051 253.885 688.624 253.32L689.776 252.216C690.203 252.728 690.656 253.107 691.136 253.352C691.616 253.587 692.16 253.704 692.768 253.704C693.472 253.704 694.011 253.544 694.384 253.224C694.768 252.904 694.96 252.445 694.96 251.848C694.96 251.368 694.821 251 694.544 250.744C694.267 250.477 693.792 250.285 693.12 250.168L691.904 249.976C691.371 249.891 690.923 249.752 690.56 249.56C690.197 249.357 689.904 249.123 689.68 248.856C689.456 248.579 689.291 248.275 689.184 247.944C689.088 247.603 689.04 247.245 689.04 246.872C689.04 245.816 689.381 245.016 690.064 244.472C690.747 243.917 691.685 243.64 692.88 243.64C693.765 243.64 694.517 243.784 695.136 244.072C695.765 244.349 696.272 244.744 696.656 245.256L695.536 246.376C695.227 246.003 694.859 245.704 694.432 245.48C694.016 245.245 693.499 245.128 692.88 245.128C692.219 245.128 691.712 245.272 691.36 245.56C691.019 245.837 690.848 246.248 690.848 246.792C690.848 247.251 690.981 247.613 691.248 247.88C691.525 248.136 692.011 248.323 692.704 248.44L693.888 248.648C694.891 248.829 695.621 249.197 696.08 249.752C696.539 250.296 696.768 250.963 696.768 251.752C696.768 252.264 696.677 252.733 696.496 253.16C696.325 253.587 696.064 253.949 695.712 254.248C695.371 254.547 694.944 254.781 694.432 254.952C693.931 255.112 693.355 255.192 692.704 255.192ZM698.97 255V243.832H705.962V245.336H700.762V248.584H705.77V250.088H700.762V253.496H705.962V255H698.97ZM708.532 255V243.832H712.708C713.774 243.832 714.585 244.131 715.14 244.728C715.705 245.325 715.988 246.147 715.988 247.192C715.988 248.237 715.705 249.059 715.14 249.656C714.585 250.253 713.774 250.552 712.708 250.552H710.324V255H708.532ZM710.324 249.064H712.436C713.545 249.064 714.1 248.552 714.1 247.528V246.84C714.1 245.827 713.545 245.32 712.436 245.32H710.324V249.064ZM721.581 255.192C720.877 255.192 720.264 255.064 719.741 254.808C719.229 254.541 718.803 254.163 718.461 253.672C718.131 253.181 717.885 252.579 717.725 251.864C717.565 251.149 717.485 250.333 717.485 249.416C717.485 248.509 717.565 247.699 717.725 246.984C717.885 246.259 718.131 245.651 718.461 245.16C718.803 244.669 719.229 244.296 719.741 244.04C720.264 243.773 720.877 243.64 721.581 243.64C722.285 243.64 722.893 243.773 723.405 244.04C723.928 244.296 724.355 244.669 724.685 245.16C725.027 245.651 725.277 246.259 725.437 246.984C725.597 247.699 725.677 248.509 725.677 249.416C725.677 250.333 725.597 251.149 725.437 251.864C725.277 252.579 725.027 253.181 724.685 253.672C724.355 254.163 723.928 254.541 723.405 254.808C722.893 255.064 722.285 255.192 721.581 255.192ZM721.581 253.704C722.381 253.704 722.947 253.405 723.277 252.808C723.608 252.2 723.773 251.379 723.773 250.344V248.472C723.773 247.448 723.608 246.637 723.277 246.04C722.947 245.432 722.381 245.128 721.581 245.128C720.781 245.128 720.216 245.432 719.885 246.04C719.555 246.637 719.389 247.448 719.389 248.472V250.36C719.389 251.384 719.555 252.2 719.885 252.808C720.216 253.405 720.781 253.704 721.581 253.704ZM728.103 255V243.832H729.895V253.496H734.983V255H728.103ZM737.249 255V253.64H739.873V245.192H737.249V243.832H744.289V245.192H741.665V253.64H744.289V255H737.249ZM752.955 255L752.107 252.024H748.555L747.707 255H745.883L749.147 243.832H751.595L754.859 255H752.955ZM750.395 245.64H750.266L748.891 250.536H751.771L750.395 245.64Z" fill="#1A202C"/>
    <path d="M318 319H317.5V319.5H318V319ZM770 319V319.5H770.5V319H770ZM770 276.538L767.113 281.538H772.887L770 276.538ZM317.5 273V319H318.5V273L317.5 273ZM318 319.5H770V318.5H318V319.5ZM770.5 319V281.038H769.5V319H770.5Z" fill="#1A202C"/>
    <path d="M573 91L573.5 91L573.5 90.5L573 90.5L573 91ZM118 91L118 90.5L117.5 90.5L117.5 91L118 91ZM118 137L120.887 132L115.113 132L118 137ZM573.5 137L573.5 91L572.5 91L572.5 137L573.5 137ZM573 90.5L118 90.5L118 91.5L573 91.5L573 90.5ZM117.5 91L117.5 132.5L118.5 132.5L118.5 91L117.5 91Z" fill="black"/>
    <path d="M241 79L246 81.8868V76.1132L241 79ZM652 78.5L245.5 78.5V79.5L652 79.5V78.5Z" fill="black"/>
    <path d="M650 331L645 328.113V333.887L650 331ZM239 331.5H645.5V330.5H239V331.5Z" fill="black"/>
    <path d="M651.47 287.624H654.314C655.034 287.624 655.598 287.82 656.006 288.212C656.414 288.604 656.618 289.128 656.618 289.784C656.618 290.288 656.494 290.684 656.246 290.972C656.006 291.26 655.694 291.464 655.31 291.584V291.62C655.782 291.732 656.17 291.944 656.474 292.256C656.778 292.56 656.93 293.004 656.93 293.588C656.93 293.924 656.874 294.24 656.762 294.536C656.65 294.832 656.49 295.088 656.282 295.304C656.082 295.52 655.842 295.692 655.562 295.82C655.29 295.94 654.994 296 654.674 296H651.47V287.624ZM654.374 295.124C654.838 295.124 655.202 295.02 655.466 294.812C655.73 294.604 655.862 294.284 655.862 293.852V293.36C655.862 292.936 655.73 292.62 655.466 292.412C655.202 292.196 654.838 292.088 654.374 292.088H652.478V295.124H654.374ZM654.206 291.26C654.63 291.26 654.962 291.168 655.202 290.984C655.442 290.792 655.562 290.504 655.562 290.12V289.652C655.562 289.268 655.442 288.98 655.202 288.788C654.962 288.596 654.63 288.5 654.206 288.5H652.478V291.26H654.206ZM659.697 296H658.689V287.624H661.737C662.513 287.624 663.105 287.836 663.513 288.26C663.921 288.684 664.125 289.276 664.125 290.036C664.125 290.716 663.949 291.26 663.597 291.668C663.245 292.076 662.733 292.312 662.061 292.376L664.197 296H663.069L661.029 292.424H659.697V296ZM661.713 291.572C662.137 291.572 662.465 291.468 662.697 291.26C662.937 291.044 663.057 290.74 663.057 290.348V289.724C663.057 289.332 662.937 289.032 662.697 288.824C662.465 288.608 662.137 288.5 661.713 288.5H659.697V291.572H661.713ZM665.813 296V295.196H667.901V288.428H665.813V287.624H670.997V288.428H668.909V295.196H670.997V296H665.813ZM673.14 287.624H675.48C676.504 287.624 677.268 287.976 677.772 288.68C678.276 289.384 678.528 290.428 678.528 291.812C678.528 293.196 678.276 294.24 677.772 294.944C677.268 295.648 676.504 296 675.48 296H673.14V287.624ZM675.432 295.124C676.104 295.124 676.608 294.892 676.944 294.428C677.288 293.964 677.46 293.308 677.46 292.46V291.164C677.46 290.316 677.288 289.66 676.944 289.196C676.608 288.732 676.104 288.5 675.432 288.5H674.148V295.124H675.432ZM684.523 294.884H684.463C684.391 295.044 684.307 295.2 684.211 295.352C684.115 295.504 683.991 295.64 683.839 295.76C683.695 295.872 683.519 295.964 683.311 296.036C683.103 296.108 682.855 296.144 682.567 296.144C681.655 296.144 680.975 295.776 680.527 295.04C680.087 294.304 679.867 293.248 679.867 291.872C679.867 290.432 680.111 289.34 680.599 288.596C681.087 287.852 681.839 287.48 682.855 287.48C683.247 287.48 683.587 287.532 683.875 287.636C684.163 287.74 684.407 287.88 684.607 288.056C684.815 288.232 684.987 288.432 685.123 288.656C685.259 288.872 685.371 289.092 685.459 289.316L684.595 289.712C684.523 289.528 684.439 289.356 684.343 289.196C684.255 289.028 684.143 288.884 684.007 288.764C683.879 288.636 683.723 288.536 683.539 288.464C683.355 288.392 683.139 288.356 682.891 288.356C682.219 288.356 681.723 288.608 681.403 289.112C681.091 289.616 680.935 290.288 680.935 291.128V292.424C680.935 292.848 680.967 293.236 681.031 293.588C681.095 293.932 681.199 294.232 681.343 294.488C681.495 294.744 681.687 294.944 681.919 295.088C682.159 295.224 682.451 295.292 682.795 295.292C683.339 295.292 683.763 295.128 684.067 294.8C684.371 294.472 684.523 294.048 684.523 293.528V292.664H682.759V291.86H685.459V296H684.523V294.884ZM687.471 296V287.624H692.631V288.5H688.479V291.32H692.487V292.196H688.479V295.124H692.631V296H687.471Z" fill="#1A202C"/>
    <path d="M196.47 115.624H199.314C200.034 115.624 200.598 115.82 201.006 116.212C201.414 116.604 201.618 117.128 201.618 117.784C201.618 118.288 201.494 118.684 201.246 118.972C201.006 119.26 200.694 119.464 200.31 119.584V119.62C200.782 119.732 201.17 119.944 201.474 120.256C201.778 120.56 201.93 121.004 201.93 121.588C201.93 121.924 201.874 122.24 201.762 122.536C201.65 122.832 201.49 123.088 201.282 123.304C201.082 123.52 200.842 123.692 200.562 123.82C200.29 123.94 199.994 124 199.674 124H196.47V115.624ZM199.374 123.124C199.838 123.124 200.202 123.02 200.466 122.812C200.73 122.604 200.862 122.284 200.862 121.852V121.36C200.862 120.936 200.73 120.62 200.466 120.412C200.202 120.196 199.838 120.088 199.374 120.088H197.478V123.124H199.374ZM199.206 119.26C199.63 119.26 199.962 119.168 200.202 118.984C200.442 118.792 200.562 118.504 200.562 118.12V117.652C200.562 117.268 200.442 116.98 200.202 116.788C199.962 116.596 199.63 116.5 199.206 116.5H197.478V119.26H199.206ZM204.697 124H203.689V115.624H206.737C207.513 115.624 208.105 115.836 208.513 116.26C208.921 116.684 209.125 117.276 209.125 118.036C209.125 118.716 208.949 119.26 208.597 119.668C208.245 120.076 207.733 120.312 207.061 120.376L209.197 124H208.069L206.029 120.424H204.697V124ZM206.713 119.572C207.137 119.572 207.465 119.468 207.697 119.26C207.937 119.044 208.057 118.74 208.057 118.348V117.724C208.057 117.332 207.937 117.032 207.697 116.824C207.465 116.608 207.137 116.5 206.713 116.5H204.697V119.572H206.713ZM210.813 124V123.196H212.901V116.428H210.813V115.624H215.997V116.428H213.909V123.196H215.997V124H210.813ZM218.14 115.624H220.48C221.504 115.624 222.268 115.976 222.772 116.68C223.276 117.384 223.528 118.428 223.528 119.812C223.528 121.196 223.276 122.24 222.772 122.944C222.268 123.648 221.504 124 220.48 124H218.14V115.624ZM220.432 123.124C221.104 123.124 221.608 122.892 221.944 122.428C222.288 121.964 222.46 121.308 222.46 120.46V119.164C222.46 118.316 222.288 117.66 221.944 117.196C221.608 116.732 221.104 116.5 220.432 116.5H219.148V123.124H220.432ZM229.523 122.884H229.463C229.391 123.044 229.307 123.2 229.211 123.352C229.115 123.504 228.991 123.64 228.839 123.76C228.695 123.872 228.519 123.964 228.311 124.036C228.103 124.108 227.855 124.144 227.567 124.144C226.655 124.144 225.975 123.776 225.527 123.04C225.087 122.304 224.867 121.248 224.867 119.872C224.867 118.432 225.111 117.34 225.599 116.596C226.087 115.852 226.839 115.48 227.855 115.48C228.247 115.48 228.587 115.532 228.875 115.636C229.163 115.74 229.407 115.88 229.607 116.056C229.815 116.232 229.987 116.432 230.123 116.656C230.259 116.872 230.371 117.092 230.459 117.316L229.595 117.712C229.523 117.528 229.439 117.356 229.343 117.196C229.255 117.028 229.143 116.884 229.007 116.764C228.879 116.636 228.723 116.536 228.539 116.464C228.355 116.392 228.139 116.356 227.891 116.356C227.219 116.356 226.723 116.608 226.403 117.112C226.091 117.616 225.935 118.288 225.935 119.128V120.424C225.935 120.848 225.967 121.236 226.031 121.588C226.095 121.932 226.199 122.232 226.343 122.488C226.495 122.744 226.687 122.944 226.919 123.088C227.159 123.224 227.451 123.292 227.795 123.292C228.339 123.292 228.763 123.128 229.067 122.8C229.371 122.472 229.523 122.048 229.523 121.528V120.664H227.759V119.86H230.459V124H229.523V122.884ZM232.471 124V115.624H237.631V116.5H233.479V119.32H237.487V120.196H233.479V123.124H237.631V124H232.471Z" fill="#1A202C"/>
    <path d="M202.685 296.144C201.933 296.144 201.317 296.008 200.837 295.736C200.357 295.456 199.961 295.1 199.649 294.668L200.381 294.068C200.709 294.476 201.053 294.78 201.413 294.98C201.781 295.18 202.217 295.28 202.721 295.28C203.329 295.28 203.793 295.14 204.113 294.86C204.433 294.58 204.593 294.188 204.593 293.684C204.593 293.276 204.477 292.96 204.245 292.736C204.013 292.504 203.609 292.34 203.033 292.244L202.097 292.088C201.689 292.016 201.345 291.908 201.065 291.764C200.793 291.62 200.573 291.448 200.405 291.248C200.237 291.04 200.117 290.816 200.045 290.576C199.973 290.328 199.937 290.072 199.937 289.808C199.937 289.04 200.189 288.46 200.693 288.068C201.197 287.676 201.877 287.48 202.733 287.48C203.405 287.48 203.969 287.592 204.425 287.816C204.889 288.04 205.261 288.356 205.541 288.764L204.833 289.376C204.601 289.072 204.321 288.824 203.993 288.632C203.665 288.44 203.241 288.344 202.721 288.344C202.153 288.344 201.717 288.464 201.413 288.704C201.109 288.944 200.957 289.304 200.957 289.784C200.957 290.16 201.069 290.468 201.293 290.708C201.525 290.94 201.937 291.108 202.529 291.212L203.429 291.368C203.837 291.44 204.181 291.548 204.461 291.692C204.741 291.836 204.965 292.008 205.133 292.208C205.309 292.408 205.433 292.632 205.505 292.88C205.577 293.128 205.613 293.388 205.613 293.66C205.613 294.436 205.357 295.044 204.845 295.484C204.341 295.924 203.621 296.144 202.685 296.144ZM207.385 296L206.725 287.624H207.625L207.973 292.424L208.153 294.956H208.249L209.353 289.808H210.481L211.585 294.956H211.681L211.861 292.424L212.209 287.624H213.085L212.425 296H210.973L209.953 290.996H209.857L208.837 296H207.385ZM219.272 296L218.564 293.612H215.624L214.916 296H213.872L216.44 287.624H217.772L220.34 296H219.272ZM217.148 288.692H217.04L215.864 292.736H218.324L217.148 288.692ZM221.775 296V287.624H224.823C225.599 287.624 226.191 287.836 226.599 288.26C227.007 288.684 227.211 289.276 227.211 290.036C227.211 290.796 227.007 291.388 226.599 291.812C226.191 292.236 225.599 292.448 224.823 292.448H222.783V296H221.775ZM222.783 291.572H224.799C225.223 291.572 225.551 291.468 225.783 291.26C226.023 291.044 226.143 290.74 226.143 290.348V289.724C226.143 289.332 226.023 289.032 225.783 288.824C225.551 288.608 225.223 288.5 224.799 288.5H222.783V291.572Z" fill="#1C1CFF"/>
    <path d="M661.795 124.144C661.043 124.144 660.427 124.008 659.947 123.736C659.467 123.456 659.071 123.1 658.759 122.668L659.491 122.068C659.819 122.476 660.163 122.78 660.523 122.98C660.891 123.18 661.327 123.28 661.831 123.28C662.439 123.28 662.903 123.14 663.223 122.86C663.543 122.58 663.703 122.188 663.703 121.684C663.703 121.276 663.587 120.96 663.355 120.736C663.123 120.504 662.719 120.34 662.143 120.244L661.207 120.088C660.799 120.016 660.455 119.908 660.175 119.764C659.903 119.62 659.683 119.448 659.515 119.248C659.347 119.04 659.227 118.816 659.155 118.576C659.083 118.328 659.047 118.072 659.047 117.808C659.047 117.04 659.299 116.46 659.803 116.068C660.307 115.676 660.987 115.48 661.843 115.48C662.515 115.48 663.079 115.592 663.535 115.816C663.999 116.04 664.371 116.356 664.651 116.764L663.943 117.376C663.711 117.072 663.431 116.824 663.103 116.632C662.775 116.44 662.351 116.344 661.831 116.344C661.263 116.344 660.827 116.464 660.523 116.704C660.219 116.944 660.067 117.304 660.067 117.784C660.067 118.16 660.179 118.468 660.403 118.708C660.635 118.94 661.047 119.108 661.639 119.212L662.539 119.368C662.947 119.44 663.291 119.548 663.571 119.692C663.851 119.836 664.075 120.008 664.243 120.208C664.419 120.408 664.543 120.632 664.615 120.88C664.687 121.128 664.723 121.388 664.723 121.66C664.723 122.436 664.467 123.044 663.955 123.484C663.451 123.924 662.731 124.144 661.795 124.144ZM666.494 124L665.834 115.624H666.734L667.082 120.424L667.262 122.956H667.358L668.462 117.808H669.59L670.694 122.956H670.79L670.97 120.424L671.318 115.624H672.194L671.534 124H670.082L669.062 118.996H668.966L667.946 124H666.494ZM678.381 124L677.673 121.612H674.733L674.025 124H672.981L675.549 115.624H676.881L679.449 124H678.381ZM676.257 116.692H676.149L674.973 120.736H677.433L676.257 116.692ZM680.885 124V115.624H683.933C684.709 115.624 685.301 115.836 685.709 116.26C686.117 116.684 686.321 117.276 686.321 118.036C686.321 118.796 686.117 119.388 685.709 119.812C685.301 120.236 684.709 120.448 683.933 120.448H681.893V124H680.885ZM681.893 119.572H683.909C684.333 119.572 684.661 119.468 684.893 119.26C685.133 119.044 685.253 118.74 685.253 118.348V117.724C685.253 117.332 685.133 117.032 684.893 116.824C684.661 116.608 684.333 116.5 683.909 116.5H681.893V119.572Z" fill="#1C1CFF"/>
    <path d="M118 319H117.5V319.5H118V319ZM303 319V319.5H303.5V319H303ZM303 276.126L300.113 281.126H305.887L303 276.126ZM117.5 273V319H118.5V273H117.5ZM118 319.5H303V318.5H118V319.5ZM303.5 319V280.626H302.5V319H303.5Z" fill="#1C1CFF"/>
    <circle cx="214" cy="319" r="15.5" fill="white" stroke="#1C1CFF"/>
    <path d="M205 319L222 319" stroke="#1C1CFF"/>
    <path d="M216 325L222 319L216 313" stroke="#1C1CFF"/>
    <circle cx="672" cy="319" r="15.5" fill="white" stroke="#1A202C"/>
    <path d="M663 319L680 319" stroke="#1A202C"/>
    <path d="M674 325L680 319L674 313" stroke="#1A202C"/>
    <path d="M770 91L770.5 91L770.5 90.5L770 90.5L770 91ZM588 91L588 90.5L587.5 90.5L587.5 91L588 91ZM588 137L590.887 132L585.113 132L588 137ZM770.5 137L770.5 91L769.5 91L769.5 137L770.5 137ZM770 90.5L588 90.5L588 91.5L770 91.5L770 90.5ZM587.5 91L587.5 132.5L588.5 132.5L588.5 91L587.5 91Z" fill="#2E2EFF"/>
    <circle cx="673" cy="91" r="15.5" transform="rotate(-180 673 91)" fill="white" stroke="#1C1CFF"/>
    <path d="M682 91L665 91" stroke="#1C1CFF"/>
    <path d="M671 85L665 91L671 97" stroke="#1C1CFF"/>
    <circle cx="217" cy="91" r="15.5" transform="rotate(-180 217 91)" fill="white" stroke="#1A202C"/>
    <path d="M226 91L209 91" stroke="#1A202C"/>
    <path d="M215 85L209 91L215 97" stroke="#1A202C"/>
    <path d="M473.037 72.144C472.285 72.144 471.669 72.008 471.189 71.736C470.709 71.456 470.313 71.1 470.001 70.668L470.733 70.068C471.061 70.476 471.405 70.78 471.765 70.98C472.133 71.18 472.569 71.28 473.073 71.28C473.681 71.28 474.145 71.14 474.465 70.86C474.785 70.58 474.945 70.188 474.945 69.684C474.945 69.276 474.829 68.96 474.597 68.736C474.365 68.504 473.961 68.34 473.385 68.244L472.449 68.088C472.041 68.016 471.697 67.908 471.417 67.764C471.145 67.62 470.925 67.448 470.757 67.248C470.589 67.04 470.469 66.816 470.397 66.576C470.325 66.328 470.289 66.072 470.289 65.808C470.289 65.04 470.541 64.46 471.045 64.068C471.549 63.676 472.229 63.48 473.085 63.48C473.757 63.48 474.321 63.592 474.777 63.816C475.241 64.04 475.613 64.356 475.893 64.764L475.185 65.376C474.953 65.072 474.673 64.824 474.345 64.632C474.017 64.44 473.593 64.344 473.073 64.344C472.505 64.344 472.069 64.464 471.765 64.704C471.461 64.944 471.309 65.304 471.309 65.784C471.309 66.16 471.421 66.468 471.645 66.708C471.877 66.94 472.289 67.108 472.881 67.212L473.781 67.368C474.189 67.44 474.533 67.548 474.813 67.692C475.093 67.836 475.317 68.008 475.485 68.208C475.661 68.408 475.785 68.632 475.857 68.88C475.929 69.128 475.965 69.388 475.965 69.66C475.965 70.436 475.709 71.044 475.197 71.484C474.693 71.924 473.973 72.144 473.037 72.144ZM477.736 72L477.076 63.624H477.976L478.324 68.424L478.504 70.956H478.6L479.704 65.808H480.832L481.936 70.956H482.032L482.212 68.424L482.56 63.624H483.436L482.776 72H481.324L480.304 66.996H480.208L479.188 72H477.736ZM489.624 72L488.916 69.612H485.976L485.268 72H484.224L486.792 63.624H488.124L490.692 72H489.624ZM487.5 64.692H487.392L486.216 68.736H488.676L487.5 64.692ZM492.127 72V63.624H495.175C495.951 63.624 496.543 63.836 496.951 64.26C497.359 64.684 497.563 65.276 497.563 66.036C497.563 66.796 497.359 67.388 496.951 67.812C496.543 68.236 495.951 68.448 495.175 68.448H493.135V72H492.127ZM493.135 67.572H495.151C495.575 67.572 495.903 67.468 496.135 67.26C496.375 67.044 496.495 66.74 496.495 66.348V65.724C496.495 65.332 496.375 65.032 496.135 64.824C495.903 64.608 495.575 64.5 495.151 64.5H493.135V67.572ZM508.042 72.144C507.674 72.144 507.346 72.084 507.058 71.964C506.778 71.844 506.538 71.68 506.338 71.472C506.146 71.256 505.998 71.008 505.894 70.728C505.79 70.448 505.738 70.148 505.738 69.828C505.738 69.62 505.762 69.404 505.81 69.18C505.858 68.956 505.942 68.74 506.062 68.532C506.182 68.316 506.338 68.112 506.53 67.92C506.73 67.72 506.982 67.544 507.286 67.392C507.062 67.104 506.874 66.808 506.722 66.504C506.578 66.2 506.506 65.868 506.506 65.508C506.506 65.204 506.562 64.928 506.674 64.68C506.794 64.432 506.95 64.22 507.142 64.044C507.342 63.86 507.574 63.72 507.838 63.624C508.102 63.528 508.382 63.48 508.678 63.48C508.942 63.48 509.182 63.52 509.398 63.6C509.622 63.672 509.818 63.768 509.986 63.888C510.154 64.008 510.294 64.144 510.406 64.296C510.526 64.448 510.614 64.6 510.67 64.752L509.878 65.16C509.774 64.912 509.618 64.708 509.41 64.548C509.202 64.38 508.942 64.296 508.63 64.296C508.27 64.296 507.982 64.408 507.766 64.632C507.558 64.848 507.454 65.128 507.454 65.472V65.568C507.454 65.696 507.47 65.82 507.502 65.94C507.534 66.06 507.582 66.188 507.646 66.324C507.718 66.452 507.806 66.592 507.91 66.744C508.022 66.896 508.154 67.068 508.306 67.26L509.386 68.592L510.262 69.672H510.322C510.378 69.36 510.414 69.004 510.43 68.604C510.446 68.204 510.462 67.812 510.478 67.428H512.17V68.232H511.27C511.246 68.424 511.222 68.604 511.198 68.772C511.174 68.94 511.146 69.104 511.114 69.264C511.082 69.424 511.046 69.588 511.006 69.756C510.966 69.916 510.91 70.088 510.838 70.272L512.302 72H511.162L510.118 70.764H510.058C509.946 71.18 509.718 71.516 509.374 71.772C509.03 72.02 508.586 72.144 508.042 72.144ZM508.294 71.292C508.638 71.292 508.942 71.22 509.206 71.076C509.47 70.932 509.678 70.732 509.83 70.476L507.742 67.956C507.374 68.188 507.114 68.452 506.962 68.748C506.81 69.036 506.734 69.352 506.734 69.696V69.876C506.734 70.308 506.878 70.652 507.166 70.908C507.454 71.164 507.83 71.292 508.294 71.292ZM520.884 63.624H523.728C524.448 63.624 525.012 63.82 525.42 64.212C525.828 64.604 526.032 65.128 526.032 65.784C526.032 66.288 525.908 66.684 525.66 66.972C525.42 67.26 525.108 67.464 524.724 67.584V67.62C525.196 67.732 525.584 67.944 525.888 68.256C526.192 68.56 526.344 69.004 526.344 69.588C526.344 69.924 526.288 70.24 526.176 70.536C526.064 70.832 525.904 71.088 525.696 71.304C525.496 71.52 525.256 71.692 524.976 71.82C524.704 71.94 524.408 72 524.088 72H520.884V63.624ZM523.788 71.124C524.252 71.124 524.616 71.02 524.88 70.812C525.144 70.604 525.276 70.284 525.276 69.852V69.36C525.276 68.936 525.144 68.62 524.88 68.412C524.616 68.196 524.252 68.088 523.788 68.088H521.892V71.124H523.788ZM523.62 67.26C524.044 67.26 524.376 67.168 524.616 66.984C524.856 66.792 524.976 66.504 524.976 66.12V65.652C524.976 65.268 524.856 64.98 524.616 64.788C524.376 64.596 524.044 64.5 523.62 64.5H521.892V67.26H523.62ZM529.111 72H528.103V63.624H531.151C531.927 63.624 532.519 63.836 532.927 64.26C533.335 64.684 533.539 65.276 533.539 66.036C533.539 66.716 533.363 67.26 533.011 67.668C532.659 68.076 532.147 68.312 531.475 68.376L533.611 72H532.483L530.443 68.424H529.111V72ZM531.127 67.572C531.551 67.572 531.879 67.468 532.111 67.26C532.351 67.044 532.471 66.74 532.471 66.348V65.724C532.471 65.332 532.351 65.032 532.111 64.824C531.879 64.608 531.551 64.5 531.127 64.5H529.111V67.572H531.127ZM535.227 72V71.196H537.315V64.428H535.227V63.624H540.411V64.428H538.323V71.196H540.411V72H535.227ZM542.554 63.624H544.894C545.918 63.624 546.682 63.976 547.186 64.68C547.69 65.384 547.942 66.428 547.942 67.812C547.942 69.196 547.69 70.24 547.186 70.944C546.682 71.648 545.918 72 544.894 72H542.554V63.624ZM544.846 71.124C545.518 71.124 546.022 70.892 546.358 70.428C546.702 69.964 546.874 69.308 546.874 68.46V67.164C546.874 66.316 546.702 65.66 546.358 65.196C546.022 64.732 545.518 64.5 544.846 64.5H543.562V71.124H544.846ZM553.937 70.884H553.877C553.805 71.044 553.721 71.2 553.625 71.352C553.529 71.504 553.405 71.64 553.253 71.76C553.109 71.872 552.933 71.964 552.725 72.036C552.517 72.108 552.269 72.144 551.981 72.144C551.069 72.144 550.389 71.776 549.941 71.04C549.501 70.304 549.281 69.248 549.281 67.872C549.281 66.432 549.525 65.34 550.013 64.596C550.501 63.852 551.253 63.48 552.269 63.48C552.661 63.48 553.001 63.532 553.289 63.636C553.577 63.74 553.821 63.88 554.021 64.056C554.229 64.232 554.401 64.432 554.537 64.656C554.673 64.872 554.785 65.092 554.873 65.316L554.009 65.712C553.937 65.528 553.853 65.356 553.757 65.196C553.669 65.028 553.557 64.884 553.421 64.764C553.293 64.636 553.137 64.536 552.953 64.464C552.769 64.392 552.553 64.356 552.305 64.356C551.633 64.356 551.137 64.608 550.817 65.112C550.505 65.616 550.349 66.288 550.349 67.128V68.424C550.349 68.848 550.381 69.236 550.445 69.588C550.509 69.932 550.613 70.232 550.757 70.488C550.909 70.744 551.101 70.944 551.333 71.088C551.573 71.224 551.865 71.292 552.209 71.292C552.753 71.292 553.177 71.128 553.481 70.8C553.785 70.472 553.937 70.048 553.937 69.528V68.664H552.173V67.86H554.873V72H553.937V70.884ZM556.885 72V63.624H562.045V64.5H557.893V67.32H561.901V68.196H557.893V71.124H562.045V72H556.885Z" fill="#1A202C"/>
    <path d="M331.037 348.144C330.285 348.144 329.669 348.008 329.189 347.736C328.709 347.456 328.313 347.1 328.001 346.668L328.733 346.068C329.061 346.476 329.405 346.78 329.765 346.98C330.133 347.18 330.569 347.28 331.073 347.28C331.681 347.28 332.145 347.14 332.465 346.86C332.785 346.58 332.945 346.188 332.945 345.684C332.945 345.276 332.829 344.96 332.597 344.736C332.365 344.504 331.961 344.34 331.385 344.244L330.449 344.088C330.041 344.016 329.697 343.908 329.417 343.764C329.145 343.62 328.925 343.448 328.757 343.248C328.589 343.04 328.469 342.816 328.397 342.576C328.325 342.328 328.289 342.072 328.289 341.808C328.289 341.04 328.541 340.46 329.045 340.068C329.549 339.676 330.229 339.48 331.085 339.48C331.757 339.48 332.321 339.592 332.777 339.816C333.241 340.04 333.613 340.356 333.893 340.764L333.185 341.376C332.953 341.072 332.673 340.824 332.345 340.632C332.017 340.44 331.593 340.344 331.073 340.344C330.505 340.344 330.069 340.464 329.765 340.704C329.461 340.944 329.309 341.304 329.309 341.784C329.309 342.16 329.421 342.468 329.645 342.708C329.877 342.94 330.289 343.108 330.881 343.212L331.781 343.368C332.189 343.44 332.533 343.548 332.813 343.692C333.093 343.836 333.317 344.008 333.485 344.208C333.661 344.408 333.785 344.632 333.857 344.88C333.929 345.128 333.965 345.388 333.965 345.66C333.965 346.436 333.709 347.044 333.197 347.484C332.693 347.924 331.973 348.144 331.037 348.144ZM335.736 348L335.076 339.624H335.976L336.324 344.424L336.504 346.956H336.6L337.704 341.808H338.832L339.936 346.956H340.032L340.212 344.424L340.56 339.624H341.436L340.776 348H339.324L338.304 342.996H338.208L337.188 348H335.736ZM347.624 348L346.916 345.612H343.976L343.268 348H342.224L344.792 339.624H346.124L348.692 348H347.624ZM345.5 340.692H345.392L344.216 344.736H346.676L345.5 340.692ZM350.127 348V339.624H353.175C353.951 339.624 354.543 339.836 354.951 340.26C355.359 340.684 355.563 341.276 355.563 342.036C355.563 342.796 355.359 343.388 354.951 343.812C354.543 344.236 353.951 344.448 353.175 344.448H351.135V348H350.127ZM351.135 343.572H353.151C353.575 343.572 353.903 343.468 354.135 343.26C354.375 343.044 354.495 342.74 354.495 342.348V341.724C354.495 341.332 354.375 341.032 354.135 340.824C353.903 340.608 353.575 340.5 353.151 340.5H351.135V343.572ZM366.042 348.144C365.674 348.144 365.346 348.084 365.058 347.964C364.778 347.844 364.538 347.68 364.338 347.472C364.146 347.256 363.998 347.008 363.894 346.728C363.79 346.448 363.738 346.148 363.738 345.828C363.738 345.62 363.762 345.404 363.81 345.18C363.858 344.956 363.942 344.74 364.062 344.532C364.182 344.316 364.338 344.112 364.53 343.92C364.73 343.72 364.982 343.544 365.286 343.392C365.062 343.104 364.874 342.808 364.722 342.504C364.578 342.2 364.506 341.868 364.506 341.508C364.506 341.204 364.562 340.928 364.674 340.68C364.794 340.432 364.95 340.22 365.142 340.044C365.342 339.86 365.574 339.72 365.838 339.624C366.102 339.528 366.382 339.48 366.678 339.48C366.942 339.48 367.182 339.52 367.398 339.6C367.622 339.672 367.818 339.768 367.986 339.888C368.154 340.008 368.294 340.144 368.406 340.296C368.526 340.448 368.614 340.6 368.67 340.752L367.878 341.16C367.774 340.912 367.618 340.708 367.41 340.548C367.202 340.38 366.942 340.296 366.63 340.296C366.27 340.296 365.982 340.408 365.766 340.632C365.558 340.848 365.454 341.128 365.454 341.472V341.568C365.454 341.696 365.47 341.82 365.502 341.94C365.534 342.06 365.582 342.188 365.646 342.324C365.718 342.452 365.806 342.592 365.91 342.744C366.022 342.896 366.154 343.068 366.306 343.26L367.386 344.592L368.262 345.672H368.322C368.378 345.36 368.414 345.004 368.43 344.604C368.446 344.204 368.462 343.812 368.478 343.428H370.17V344.232H369.27C369.246 344.424 369.222 344.604 369.198 344.772C369.174 344.94 369.146 345.104 369.114 345.264C369.082 345.424 369.046 345.588 369.006 345.756C368.966 345.916 368.91 346.088 368.838 346.272L370.302 348H369.162L368.118 346.764H368.058C367.946 347.18 367.718 347.516 367.374 347.772C367.03 348.02 366.586 348.144 366.042 348.144ZM366.294 347.292C366.638 347.292 366.942 347.22 367.206 347.076C367.47 346.932 367.678 346.732 367.83 346.476L365.742 343.956C365.374 344.188 365.114 344.452 364.962 344.748C364.81 345.036 364.734 345.352 364.734 345.696V345.876C364.734 346.308 364.878 346.652 365.166 346.908C365.454 347.164 365.83 347.292 366.294 347.292ZM378.884 339.624H381.728C382.448 339.624 383.012 339.82 383.42 340.212C383.828 340.604 384.032 341.128 384.032 341.784C384.032 342.288 383.908 342.684 383.66 342.972C383.42 343.26 383.108 343.464 382.724 343.584V343.62C383.196 343.732 383.584 343.944 383.888 344.256C384.192 344.56 384.344 345.004 384.344 345.588C384.344 345.924 384.288 346.24 384.176 346.536C384.064 346.832 383.904 347.088 383.696 347.304C383.496 347.52 383.256 347.692 382.976 347.82C382.704 347.94 382.408 348 382.088 348H378.884V339.624ZM381.788 347.124C382.252 347.124 382.616 347.02 382.88 346.812C383.144 346.604 383.276 346.284 383.276 345.852V345.36C383.276 344.936 383.144 344.62 382.88 344.412C382.616 344.196 382.252 344.088 381.788 344.088H379.892V347.124H381.788ZM381.62 343.26C382.044 343.26 382.376 343.168 382.616 342.984C382.856 342.792 382.976 342.504 382.976 342.12V341.652C382.976 341.268 382.856 340.98 382.616 340.788C382.376 340.596 382.044 340.5 381.62 340.5H379.892V343.26H381.62ZM387.111 348H386.103V339.624H389.151C389.927 339.624 390.519 339.836 390.927 340.26C391.335 340.684 391.539 341.276 391.539 342.036C391.539 342.716 391.363 343.26 391.011 343.668C390.659 344.076 390.147 344.312 389.475 344.376L391.611 348H390.483L388.443 344.424H387.111V348ZM389.127 343.572C389.551 343.572 389.879 343.468 390.111 343.26C390.351 343.044 390.471 342.74 390.471 342.348V341.724C390.471 341.332 390.351 341.032 390.111 340.824C389.879 340.608 389.551 340.5 389.127 340.5H387.111V343.572H389.127ZM393.227 348V347.196H395.315V340.428H393.227V339.624H398.411V340.428H396.323V347.196H398.411V348H393.227ZM400.554 339.624H402.894C403.918 339.624 404.682 339.976 405.186 340.68C405.69 341.384 405.942 342.428 405.942 343.812C405.942 345.196 405.69 346.24 405.186 346.944C404.682 347.648 403.918 348 402.894 348H400.554V339.624ZM402.846 347.124C403.518 347.124 404.022 346.892 404.358 346.428C404.702 345.964 404.874 345.308 404.874 344.46V343.164C404.874 342.316 404.702 341.66 404.358 341.196C404.022 340.732 403.518 340.5 402.846 340.5H401.562V347.124H402.846ZM411.937 346.884H411.877C411.805 347.044 411.721 347.2 411.625 347.352C411.529 347.504 411.405 347.64 411.253 347.76C411.109 347.872 410.933 347.964 410.725 348.036C410.517 348.108 410.269 348.144 409.981 348.144C409.069 348.144 408.389 347.776 407.941 347.04C407.501 346.304 407.281 345.248 407.281 343.872C407.281 342.432 407.525 341.34 408.013 340.596C408.501 339.852 409.253 339.48 410.269 339.48C410.661 339.48 411.001 339.532 411.289 339.636C411.577 339.74 411.821 339.88 412.021 340.056C412.229 340.232 412.401 340.432 412.537 340.656C412.673 340.872 412.785 341.092 412.873 341.316L412.009 341.712C411.937 341.528 411.853 341.356 411.757 341.196C411.669 341.028 411.557 340.884 411.421 340.764C411.293 340.636 411.137 340.536 410.953 340.464C410.769 340.392 410.553 340.356 410.305 340.356C409.633 340.356 409.137 340.608 408.817 341.112C408.505 341.616 408.349 342.288 408.349 343.128V344.424C408.349 344.848 408.381 345.236 408.445 345.588C408.509 345.932 408.613 346.232 408.757 346.488C408.909 346.744 409.101 346.944 409.333 347.088C409.573 347.224 409.865 347.292 410.209 347.292C410.753 347.292 411.177 347.128 411.481 346.8C411.785 346.472 411.937 346.048 411.937 345.528V344.664H410.173V343.86H412.873V348H411.937V346.884ZM414.885 348V339.624H420.045V340.5H415.893V343.32H419.901V344.196H415.893V347.124H420.045V348H414.885Z" fill="#1A202C"/>
    <defs>
    <filter id="filter0_d_4513_7103" x="21" y="137" width="200" height="140" filterUnits="userSpaceOnUse" color-interpolation-filters="sRGB">
    <feFlood flood-opacity="0" result="BackgroundImageFix"/>
    <feColorMatrix in="SourceAlpha" type="matrix" values="0 0 0 0 0 0 0 0 0 0 0 0 0 0 0 0 0 0 127 0" result="hardAlpha"/>
    <feOffset dx="4" dy="4"/>
    <feComposite in2="hardAlpha" operator="out"/>
    <feColorMatrix type="matrix" values="0 0 0 0 0.823529 0 0 0 0 0.823529 0 0 0 0 0.968627 0 0 0 1 0"/>
    <feBlend mode="normal" in2="BackgroundImageFix" result="effect1_dropShadow_4513_7103"/>
    <feBlend mode="normal" in="SourceGraphic" in2="effect1_dropShadow_4513_7103" result="shape"/>
    </filter>
    <filter id="filter1_d_4513_7103" x="477" y="137" width="200" height="140" filterUnits="userSpaceOnUse" color-interpolation-filters="sRGB">
    <feFlood flood-opacity="0" result="BackgroundImageFix"/>
    <feColorMatrix in="SourceAlpha" type="matrix" values="0 0 0 0 0 0 0 0 0 0 0 0 0 0 0 0 0 0 127 0" result="hardAlpha"/>
    <feOffset dx="4" dy="4"/>
    <feComposite in2="hardAlpha" operator="out"/>
    <feColorMatrix type="matrix" values="0 0 0 0 0.823529 0 0 0 0 0.823529 0 0 0 0 0.968627 0 0 0 1 0"/>
    <feBlend mode="normal" in2="BackgroundImageFix" result="effect1_dropShadow_4513_7103"/>
    <feBlend mode="normal" in="SourceGraphic" in2="effect1_dropShadow_4513_7103" result="shape"/>
    </filter>
    <filter id="filter2_d_4513_7103" x="216" y="137" width="200" height="140" filterUnits="userSpaceOnUse" color-interpolation-filters="sRGB">
    <feFlood flood-opacity="0" result="BackgroundImageFix"/>
    <feColorMatrix in="SourceAlpha" type="matrix" values="0 0 0 0 0 0 0 0 0 0 0 0 0 0 0 0 0 0 127 0" result="hardAlpha"/>
    <feOffset dx="4" dy="4"/>
    <feComposite in2="hardAlpha" operator="out"/>
    <feColorMatrix type="matrix" values="0 0 0 0 0.823529 0 0 0 0 0.823529 0 0 0 0 0.968627 0 0 0 1 0"/>
    <feBlend mode="normal" in2="BackgroundImageFix" result="effect1_dropShadow_4513_7103"/>
    <feBlend mode="normal" in="SourceGraphic" in2="effect1_dropShadow_4513_7103" result="shape"/>
    </filter>
    <filter id="filter3_d_4513_7103" x="672" y="137" width="200" height="140" filterUnits="userSpaceOnUse" color-interpolation-filters="sRGB">
    <feFlood flood-opacity="0" result="BackgroundImageFix"/>
    <feColorMatrix in="SourceAlpha" type="matrix" values="0 0 0 0 0 0 0 0 0 0 0 0 0 0 0 0 0 0 127 0" result="hardAlpha"/>
    <feOffset dx="4" dy="4"/>
    <feComposite in2="hardAlpha" operator="out"/>
    <feColorMatrix type="matrix" values="0 0 0 0 0.823529 0 0 0 0 0.823529 0 0 0 0 0.968627 0 0 0 1 0"/>
    <feBlend mode="normal" in2="BackgroundImageFix" result="effect1_dropShadow_4513_7103"/>
    <feBlend mode="normal" in="SourceGraphic" in2="effect1_dropShadow_4513_7103" result="shape"/>
    </filter>
    <linearGradient id="paint0_linear_4513_7103" x1="232" y1="193" x2="269.724" y2="173.188" gradientUnits="userSpaceOnUse">
    <stop offset="0.0703" stop-color="#6B6BC6" stop-opacity="0.28"/>
    <stop offset="0.5242" stop-color="#799CE6" stop-opacity="0.2"/>
    <stop offset="0.9877" stop-color="#80E6DF" stop-opacity="0.27"/>
    </linearGradient>
    <linearGradient id="paint1_linear_4513_7103" x1="688" y1="193" x2="725.724" y2="173.188" gradientUnits="userSpaceOnUse">
    <stop offset="0.0703" stop-color="#6B6BC6" stop-opacity="0.28"/>
    <stop offset="0.5242" stop-color="#799CE6" stop-opacity="0.2"/>
    <stop offset="0.9877" stop-color="#80E6DF" stop-opacity="0.27"/>
    </linearGradient>
    <clipPath id="clip0_4513_7103">
    <rect width="40" height="40" fill="white" transform="translate(232 153)"/>
    </clipPath>
    <clipPath id="clip1_4513_7103">
    <rect width="40" height="40" fill="white" transform="translate(688 153)"/>
    </clipPath>
    </defs>
    </svg>
    